PathFileType	4	(X/Y/Z)	./resultDataOpenSim/trcMotMarkerGrf/sub06/qtm-14-04.trc
DataRate	CameraRate	NumFrames	NumMarkers	Units	OrigDataRate	OrigDataStartFrame	OrigNumFrames
250.000000	250.000000	8	24	m	250.000000	136	542
Frame#	Time	L.Toe.Tip			R.Toe.Tip			L.Ankle.Lat			R.Ankle.Lat			L.Ankle.Med			R.Ankle.Med			L.Heel			R.Heel			L.Knee.Lat			R.Knee.Lat			L.Knee.Med			R.Knee.Med			L.Thigh.Upper			R.Thigh.Upper			L.ASIS			R.ASIS			V.Sacral			L.Acromium			R.Acromium			C7			L.Elbow			R.Elbow			L.Wrist.Lat			R.Wrist.Lat
		X1	Y1	Z1	X2	Y2	Z2	X3	Y3	Z3	X4	Y4	Z4	X5	Y5	Z5	X6	Y6	Z6	X7	Y7	Z7	X8	Y8	Z8	X9	Y9	Z9	X10	Y10	Z10	X11	Y11	Z11	X12	Y12	Z12	X13	Y13	Z13	X14	Y14	Z14	X15	Y15	Z15	X16	Y16	Z16	X17	Y17	Z17	X18	Y18	Z18	X19	Y19	Z19	X20	Y20	Z20	X21	Y21	Z21	X22	Y22	Z22	X23	Y23	Z23	X24	Y24	Z24

136	0.54	-0.14730334	0.14159888	-0.039301	-0.8034683	0.034536376	0.08656643	-0.2728643	0.11472366	-0.0630796	-0.93361918	0.073529562	0.10490923	-0.279802	0.12932005	0.021461838	-0.90543596	0.096294765	0.022855322	-0.32037563	0.051808664	-0.015965726	-0.98823767	0.061825438	0.038307726	-0.41463986	0.45263998	-0.065225293	-0.76894221	0.42895862	0.15587365	-0.43957041	0.44194721	0.059277187	-0.78868083	0.43223316	0.024241565	-0.60233473	0.79143807	-0.11902628	-0.68085154	0.7799152	0.22821577	-0.54541679	0.83751473	-0.063512075	-0.56486548	0.8301206	0.18461235	-0.74427468	0.91044083	0.046952711	-0.63559044	1.3198876	-0.12176093	-0.6177248	1.3017916	0.2397062	-0.70487726	1.347028	0.063267986	-0.73725257	1.0230599	-0.17388375	-0.61840789	0.9848125	0.34020627	-0.63836174	0.8054643	-0.22513887	-0.37140433	0.95075418	0.29720729
137	0.544	-0.13725775	0.14332592	-0.037716264	-0.80344294	0.034465096	0.086392012	-0.26244107	0.11520283	-0.061822368	-0.93323049	0.074091195	0.10473798	-0.26978185	0.12985859	0.022705618	-0.90485956	0.096534889	0.022615641	-0.3093636	0.051660808	-0.014856421	-0.98797329	0.062775082	0.038274644	-0.40712657	0.45185059	-0.064555891	-0.76511493	0.42789016	0.15574212	-0.4326576	0.44096804	0.059823363	-0.78440765	0.43124988	0.024093656	-0.59559818	0.78977715	-0.1189742	-0.6752741	0.77813415	0.2279034	-0.53859569	0.83553766	-0.063213774	-0.55914175	0.828081	0.18476536	-0.7373623	0.90885879	0.045546461	-0.62932656	1.3178332	-0.12189866	-0.61181272	1.2998452	0.23985347	-0.69902145	1.3454441	0.063129289	-0.73137731	1.0211977	-0.17363478	-0.61105831	0.98280061	0.34050009	-0.6346457	0.80312302	-0.22573214	-0.36401769	0.95072797	0.29665743
138	0.548	-0.12767223	0.14456199	-0.036075384	-0.80335809	0.034430529	0.086199805	-0.25251388	0.11539162	-0.0605363	-0.93279365	0.07470788	0.10462317	-0.26033058	0.13010904	0.023884592	-0.90426362	0.096831097	0.022417279	-0.2990516	0.051387736	-0.013609994	-0.98769107	0.063813444	0.038320586	-0.399575	0.45104592	-0.063924728	-0.76119307	0.42683549	0.15561203	-0.4256468	0.44000713	0.060334449	-0.78007019	0.43026516	0.023971912	-0.58891783	0.78817097	-0.11892126	-0.66940537	0.77641315	0.2276781	-0.53173471	0.83359529	-0.06290892	-0.55343358	0.82608	0.18497181	-0.73053073	0.90728591	0.044508925	-0.62300655	1.3157964	-0.12205253	-0.60587327	1.297939	0.23997336	-0.69303024	1.3438542	0.062934448	-0.72551403	1.0193786	-0.17336263	-0.60370259	0.98081899	0.34074684	-0.63096521	0.80075429	-0.22631307	-0.35663461	0.95057536	0.29610837
139	0.552	-0.11853707	0.14531557	-0.034360231	-0.80322689	0.034420455	0.086014659	-0.24307774	0.11529675	-0.059251487	-0.93228774	0.075407916	0.10457717	-0.25142776	0.13005292	0.025006928	-0.9036483	0.097194039	0.022265791	-0.28940994	0.050992895	-0.012318371	-0.98738248	0.064958011	0.038426565	-0.39199875	0.45021248	-0.06333194	-0.7571842	0.42578647	0.15548125	-0.41852103	0.43907545	0.060815967	-0.77566092	0.4292853	0.02386495	-0.58219354	0.78662367	-0.11886844	-0.66330377	0.77479157	0.22760828	-0.52483201	0.83169895	-0.062600066	-0.54774264	0.82410917	0.18524807	-0.72399155	0.90567895	0.04407072	-0.61671039	1.3137991	-0.12224181	-0.59990149	1.2960808	0.24005822	-0.68677729	1.3422026	0.06269004	-0.71957804	1.0175859	-0.17310165	-0.59636735	0.97887555	0.34094311	-0.62734595	0.79837752	-0.22691064	-0.34930144	0.95029359	0.29556732
140	0.556	-0.10985745	0.14559573	-0.032576952	-0.80307922	0.034422822	0.08584688	-0.23412895	0.11494002	-0.058001883	-0.93170887	0.076209432	0.10461101	-0.24302002	0.12970165	0.026098693	-0.90301685	0.097638796	0.022163713	-0.28039822	0.050448383	-0.011124712	-0.98703415	0.066228924	0.03856109	-0.38442203	0.44935411	-0.062776401	-0.75308126	0.4247439	0.15536104	-0.411275	0.43819128	0.061269407	-0.77117407	0.42831941	0.023761032	-0.57533186	0.78515271	-0.11881188	-0.65700896	0.77325337	0.22755833	-0.51788715	0.82985909	-0.06228053	-0.54204425	0.82217225	0.18557399	-0.71749046	0.90400712	0.044264909	-0.61048302	1.3118543	-0.12247678	-0.59389882	1.2942823	0.24010286	-0.68034628	1.3405016	0.062436301	-0.71352977	1.0158112	-0.17286878	-0.58905758	0.97698823	0.3410775	-0.62367467	0.79604297	-0.22750368	-0.34206864	0.94989298	0.29504665
141	0.56	-0.10165274	0.14540754	-0.030766161	-0.80294443	0.034426239	0.085698187	-0.22566489	0.11434015	-0.056797611	-0.93105972	0.077117777	0.10472899	-0.23507123	0.12906875	0.02717079	-0.9023632	0.09817361	0.022115249	-0.27200142	0.049723847	-0.010113211	-0.98663119	0.067628193	0.038713693	-0.37685742	0.44848749	-0.062252301	-0.74887672	0.42371952	0.15526137	-0.40391466	0.43737874	0.061693744	-0.76660842	0.42737395	0.023657633	-0.5683237	0.78377472	-0.11876133	-0.65053312	0.77167948	0.22714745	-0.51089065	0.82808213	-0.061924688	-0.53631821	0.82028316	0.18591614	-0.71046761	0.90227899	0.045027129	-0.60427246	1.3099616	-0.12274137	-0.58787259	1.2925563	0.24010773	-0.67396557	1.3388409	0.062196043	-0.70737646	1.0140613	-0.17265731	-0.58176066	0.97517706	0.34113642	-0.61980072	0.79378663	-0.22803622	-0.33493217	0.94939037	0.29454909
142	0.564	-0.093941698	0.14476054	-0.02897828	-0.80283615	0.03442227	0.085570704	-0.21768496	0.11350383	-0.05562456	-0.93034466	0.07812891	0.10492419	-0.2275834	0.12815236	0.028215109	-0.90167359	0.098793642	0.022131689	-0.26422008	0.048807851	-0.0092965507	-0.98617645	0.069136808	0.038919517	-0.36926471	0.44763983	-0.0617431	-0.74457505	0.42272604	0.15518677	-0.39645227	0.43666007	0.062088574	-0.76196624	0.42644839	0.023562706	-0.56121583	0.78249476	-0.11873035	-0.64386866	0.76987581	0.22600839	-0.50382088	0.82636443	-0.061496091	-0.53055963	0.81845527	0.1862474	-0.70266388	0.90055482	0.046222512	-0.59798449	1.308115	-0.12300595	-0.58182604	1.29091	0.24007421	-0.66776354	1.337306	0.061941529	-0.70113037	1.0123512	-0.17243964	-0.57445719	0.97344927	0.34111027	-0.61567751	0.79161124	-0.22847458	-0.32786303	0.94879734	0.29406925
143	0.568	-0.086720206	0.14367402	-0.027220775	-0.80274989	0.034406503	0.085469974	-0.21019174	0.1124317	-0.054469452	-0.92957361	0.079232931	0.10518283	-0.22059508	0.12693416	0.029208694	-0.90093723	0.099490381	0.022225328	-0.25705573	0.047703604	-0.0086513951	-0.9857192	0.070738612	0.039263877	-0.36153593	0.44684638	-0.061214805	-0.74018579	0.42176714	0.15514149	-0.38890194	0.43604657	0.06245859	-0.75724974	0.42553608	0.023488859	-0.55404857	0.78130676	-0.11871818	-0.63707737	0.76775001	0.22423719	-0.49666184	0.82470418	-0.060990999	-0.52476039	0.81669535	0.18655694	-0.69446067	0.89891422	0.047483179	-0.59157541	1.3063115	-0.12325433	-0.57575659	1.289344	0.24000199	-0.66168688	1.3359071	0.061632558	-0.69479565	1.0107	-0.17218518	-0.56714985	0.9717975	0.34100236	-0.61135665	0.78950374	-0.22882359	-0.32084397	0.94811147	0.29360089
